# xmcd
#
# Track frame offsets: 
#        150
#        11998
#        22903
#        31788
#        41322
#        50541
#        60081
#        70446
#        83251
#        98545
#        108405
#        117206
#
# Disc length: 1735 seconds
#
# Revision: 15
# Processed by: cddbd v1.5.2PL0 Copyright (c) Steve Scherf et al.
# Submitted via: ExactAudioCopy v1.0b4
#
DISCID=8106c50c
DTITLE=J. J. Cale - Okie (LP)
DYEAR=1974
DGENRE=Blues
TTITLE0=Crying
TTITLE1=I'll Be There (If You Ever Want Me)
TTITLE2=Starbound
TTITLE3=Rock And Roll Records
TTITLE4=The Old Man And Me
TTITLE5=Everlovin' Woman
TTITLE6=Cajun Moon
TTITLE7=I'd Like To Love You Baby
TTITLE8=Anyway The Wind Blows
TTITLE9=Precious Memories
TTITLE10=Okie
TTITLE11=I Got The Same Old Blues
EXTD=
EXTT0=
EXTT1=
EXTT2=
EXTT3=
EXTT4=
EXTT5=
EXTT6=
EXTT7=
EXTT8=
EXTT9=
EXTT10=
EXTT11=
PLAYORDER=
